# xmcd CD database file generated by Grip 2.96
# 
# Track frame offsets:
#       150
#       15420
#       28727
#       40947
#       55230
#       69395
#       83920
#       98380
#       112565
#       128340
#       143540
#       157465
#       173267
#       185712
#       198967
#       211632
#       226194
#       239787
#       254379
#       268337
#       284074
#       299662
#       315009
#       329529
# 
# Disc length: 4557 seconds
# 
# Revision: 0
# Processed by: cddbd v1.4PL0 Copyright (c) Steve Scherf et al.
# Submitted via: Grip 2.96
# 
DISCID=4d11cb18
DTITLE=Louis Armstrong - The Great Satchmo
DYEAR=1900
DGENRE=
TTITLE0=When It's Sleepy Time Down South
TTITLE1=I Can't Give You Anything But Love
TTITLE2=Jeepers Creepers
TTITLE3=You Rascal You
TTITLE4=Struttin With Some Barbecue
TTITLE5=I'm Confessin'
TTITLE6=Lazybones
TTITLE7=Save It Pretty Mama
TTITLE8=Wolverine Blues
TTITLE9=Dinah
TTITLE10=I Gotta Right To Sing The Blues
TTITLE11=Stardust
TTITLE12=Track 13Dippermouth Blues
TTITLE13=Ain't Missbehavin'
TTITLE14=I Ain't Got Nobody
TTITLE15=Rockin' Chair
TTITLE16=Do You Know What It Means To Miss New Orleans
TTITLE17=Perdidi Street Blues
TTITLE18=St. Louis Blues
TTITLE19=Basin Street Blues
TTITLE20=High Society
TTITLE21=St. James Infirmary
TTITLE22=That's My Home
TTITLE23=When The Saints Go Marching In
EXTD=
EXTT0=
EXTT1=
EXTT2=
EXTT3=
EXTT4=
EXTT5=
EXTT6=
EXTT7=
EXTT8=
EXTT9=
EXTT10=
EXTT11=
EXTT12=
EXTT13=
EXTT14=
EXTT15=
EXTT16=
EXTT17=
EXTT18=
EXTT19=
EXTT20=
EXTT21=
EXTT22=
EXTT23=
PLAYORDER=
